<svg width="145" height="28" viewBox="0 0 145 28" fill="none" xmlns="http://www.w3.org/2000/svg">
<path d="M21.5378 0.0580817C21.6271 0.116163 21.6866 0.174245 21.7461 0.232327C24.5127 4.06572 26.8331 8.36376 26.8331 14.0558C26.8331 19.7768 24.4235 24.0748 21.7461 27.6759C21.6568 27.763 21.6271 27.8502 21.5081 27.9373C21.3891 28.0244 21.1511 27.9954 21.1511 27.9954H18.563C18.563 27.9954 18.4737 27.9954 18.444 27.9663C18.4142 27.9082 18.444 27.8792 18.4737 27.8502C19.5149 25.8173 20.5561 23.7554 21.3296 21.4321C22.0733 19.225 22.817 16.8146 22.8765 13.9977C22.9658 10.9194 22.5195 9.06074 21.8948 7.08596C20.9429 4.1238 19.6042 1.77149 18.5332 0.232327C18.444 0.116163 18.444 0.0871225 18.4737 0.0290408C18.5332 0 18.6225 0 18.6225 0H21.1808C21.1808 0 21.4486 0 21.5378 0.0580817Z" fill="#FFEC40"/>
<path d="M19.4559 5.22744C19.2774 4.79183 17.314 0.522826 17.2545 0.406662C17.2247 0.348581 17.195 0.377622 17.1652 0.377622C17.1355 0.406662 17.1057 0.435703 17.1355 0.551866C17.314 2.12007 17.3735 4.4143 16.8678 7.02797C16.5405 8.74138 16.124 10.3096 14.7853 12.6328C13.5954 14.7238 12.0485 16.263 10.5908 17.6569C9.07359 19.109 7.43741 20.2706 5.83098 21.4032C5.80123 21.4322 5.77148 21.4322 5.77148 21.4903C5.77148 21.5193 5.86073 21.5774 5.86073 21.5774L7.82414 22.5939C7.82414 22.5939 8.00264 22.681 8.12163 22.681C8.24063 22.6519 8.30012 22.6229 8.38937 22.5939C11.8997 20.8804 15.4398 18.5862 17.79 14.2591C19.1584 11.7326 19.9021 9.23507 19.8426 6.82469C19.7831 6.12771 19.6046 5.60497 19.4559 5.22744Z" fill="#F9BC12"/>
<path d="M15.7966 4.90802C15.8263 4.53049 15.9156 0.755178 15.9156 0.668055C15.9156 0.580933 15.8858 0.580933 15.8561 0.580933C15.8263 0.580933 15.7966 0.609973 15.7668 0.697096C15.3503 1.88777 14.5471 3.57214 13.2679 5.31459C12.4052 6.44718 11.5425 7.46361 9.75758 8.68332C8.15115 9.78687 6.45547 10.3967 4.90854 10.8904C3.27236 11.4132 1.69568 11.7326 0.0892462 11.994C0.0594975 11.994 0.0297487 11.994 0 12.023C0 12.0521 0.0297485 12.1101 0.0297485 12.1101L1.1007 13.5041C1.1007 13.5041 1.18995 13.6493 1.27919 13.6783C1.36844 13.7074 1.42794 13.7074 1.51718 13.7074C4.67055 13.6783 8.09165 13.2137 11.3343 10.8614C13.2382 9.49647 14.6661 7.92826 15.4693 6.15677C15.7073 5.66308 15.7668 5.22747 15.7966 4.90802Z" fill="#F9BC12"/>
<path d="M46.6224 15.0635C46.6224 13.2959 46.1875 11.9362 45.3179 10.9844C44.4482 10.0326 43.2886 9.55671 41.8391 9.55671C41.0274 9.55671 40.3897 9.58585 39.9258 9.64412C39.4813 9.70239 39.1238 9.77038 38.8532 9.84807V19.4048C39.1818 19.6767 39.6553 19.939 40.2737 20.1915C40.8922 20.444 41.5686 20.5702 42.303 20.5702C43.076 20.5702 43.7331 20.4343 44.2742 20.1623C44.8347 19.871 45.2889 19.4825 45.6367 18.9969C45.9846 18.4918 46.2359 17.9091 46.3905 17.2487C46.5451 16.5689 46.6224 15.8404 46.6224 15.0635ZM49.4343 15.0635C49.4343 16.2095 49.2797 17.2681 48.9705 18.2393C48.6806 19.2105 48.2458 20.0458 47.666 20.7451C47.0862 21.4443 46.3711 21.9882 45.5208 22.3767C44.6898 22.7652 43.7331 22.9594 42.6508 22.9594C41.7812 22.9594 41.0081 22.8429 40.3317 22.6098C39.6746 22.3767 39.1818 22.1533 38.8532 21.9396V28H36.1572V7.92508C36.795 7.76968 37.5874 7.60458 38.5344 7.42976C39.5007 7.23552 40.6119 7.1384 41.8681 7.1384C43.0277 7.1384 44.0713 7.32293 44.999 7.69199C45.9266 8.06105 46.719 8.5855 47.3761 9.26535C48.0332 9.9452 48.5357 10.7804 48.8835 11.7711C49.2507 12.7423 49.4343 13.8398 49.4343 15.0635Z" fill="white"/>
<path d="M57.504 22.9011C55.842 22.8623 54.6631 22.5029 53.9673 21.8231C53.2716 21.1433 52.9237 20.0846 52.9237 18.6472V0.46618L55.6197 0V18.2102C55.6197 18.657 55.6584 19.026 55.7357 19.3174C55.813 19.6087 55.9386 19.8418 56.1125 20.0166C56.2865 20.1915 56.5184 20.3274 56.8083 20.4246C57.0982 20.5023 57.4557 20.5702 57.8809 20.6285L57.504 22.9011Z" fill="white"/>
<path d="M65.7642 20.6576C66.4019 20.6576 66.9624 20.6479 67.4456 20.6285C67.948 20.5897 68.3636 20.5314 68.6921 20.4537V15.9376C68.4988 15.8404 68.18 15.7627 67.7355 15.7045C67.3103 15.6268 66.7885 15.5879 66.17 15.5879C65.7642 15.5879 65.3293 15.6171 64.8655 15.6753C64.421 15.7336 64.0055 15.8599 63.619 16.0541C63.2518 16.2289 62.9425 16.4814 62.6913 16.8117C62.4401 17.1224 62.3144 17.5401 62.3144 18.0645C62.3144 19.0357 62.6237 19.7156 63.2421 20.1041C63.8605 20.4731 64.7012 20.6576 65.7642 20.6576ZM65.5323 7.08012C66.6145 7.08012 67.5229 7.22581 68.2573 7.51717C69.011 7.78911 69.6101 8.1873 70.0546 8.71176C70.5184 9.21679 70.847 9.82865 71.0402 10.5473C71.2335 11.2466 71.3301 12.0236 71.3301 12.8783V22.3476C71.0982 22.3864 70.7697 22.4447 70.3445 22.5224C69.9386 22.5806 69.4748 22.6389 68.953 22.6972C68.4312 22.7555 67.8611 22.804 67.2426 22.8429C66.6435 22.9011 66.0444 22.9303 65.4453 22.9303C64.5949 22.9303 63.8122 22.8429 63.0972 22.6681C62.3821 22.4932 61.7636 22.2213 61.2418 21.8522C60.72 21.4638 60.3142 20.9587 60.0243 20.3371C59.7344 19.7156 59.5894 18.9677 59.5894 18.0937C59.5894 17.2584 59.7537 16.5397 60.0823 15.9376C60.4301 15.3354 60.894 14.8498 61.4738 14.4807C62.0535 14.1117 62.73 13.8398 63.503 13.6649C64.2761 13.4901 65.0878 13.4027 65.9381 13.4027C66.2087 13.4027 66.4889 13.4221 66.7788 13.461C67.0687 13.4804 67.3393 13.5193 67.5905 13.5775C67.8611 13.6164 68.093 13.6552 68.2862 13.6941C68.4795 13.7329 68.6148 13.7621 68.6921 13.7815V13.0239C68.6921 12.5772 68.6438 12.1401 68.5472 11.7128C68.4505 11.266 68.2766 10.8776 68.0253 10.5473C67.7741 10.1977 67.4262 9.92577 66.9817 9.73153C66.5566 9.51786 65.9961 9.41103 65.3003 9.41103C64.4113 9.41103 63.6286 9.47902 62.9522 9.61498C62.2951 9.73153 61.8023 9.85779 61.4738 9.99376L61.1549 7.75026C61.5027 7.59487 62.0825 7.44918 62.8942 7.31322C63.7059 7.15782 64.5853 7.08012 65.5323 7.08012Z" fill="white"/>
<path d="M78.0835 7.4589H83.7944V9.73153H78.0835V16.7242C78.0835 17.4818 78.1415 18.1131 78.2575 18.6181C78.3734 19.1037 78.5473 19.4922 78.7793 19.7836C79.0112 20.0555 79.3011 20.2497 79.6489 20.3663C79.9968 20.4828 80.4027 20.5411 80.8665 20.5411C81.6782 20.5411 82.3256 20.4537 82.8088 20.2789C83.3113 20.0846 83.6591 19.9487 83.8524 19.871L84.3742 22.1145C84.1036 22.2504 83.6301 22.4155 82.9537 22.6098C82.2773 22.8234 81.5043 22.9303 80.6346 22.9303C79.6103 22.9303 78.7599 22.804 78.0835 22.5515C77.4264 22.2796 76.895 21.8814 76.4891 21.3569C76.0833 20.8325 75.7934 20.1915 75.6194 19.4339C75.4648 18.657 75.3875 17.7634 75.3875 16.7534V3.23413L78.0835 2.76795V7.4589Z" fill="white"/>
<path d="M92.0808 20.6576C92.7186 20.6576 93.2791 20.6479 93.7622 20.6285C94.2647 20.5897 94.6802 20.5314 95.0088 20.4537V15.9376C94.8155 15.8404 94.4966 15.7627 94.0521 15.7045C93.6269 15.6268 93.1051 15.5879 92.4867 15.5879C92.0808 15.5879 91.646 15.6171 91.1822 15.6753C90.7377 15.7336 90.3221 15.8599 89.9356 16.0541C89.5684 16.2289 89.2592 16.4814 89.008 16.8117C88.7567 17.1224 88.6311 17.5401 88.6311 18.0645C88.6311 19.0357 88.9403 19.7156 89.5588 20.1041C90.1772 20.4731 91.0179 20.6576 92.0808 20.6576ZM91.8489 7.08012C92.9312 7.08012 93.8395 7.22581 94.5739 7.51717C95.3276 7.78911 95.9268 8.1873 96.3713 8.71176C96.8351 9.21679 97.1636 9.82865 97.3569 10.5473C97.5502 11.2466 97.6468 12.0236 97.6468 12.8783V22.3476C97.4149 22.3864 97.0863 22.4447 96.6612 22.5224C96.2553 22.5806 95.7915 22.6389 95.2697 22.6972C94.7479 22.7555 94.1777 22.804 93.5593 22.8429C92.9602 22.9011 92.3611 22.9303 91.762 22.9303C90.9116 22.9303 90.1289 22.8429 89.4138 22.6681C88.6987 22.4932 88.0803 22.2213 87.5585 21.8522C87.0367 21.4638 86.6308 20.9587 86.3409 20.3371C86.0511 19.7156 85.9061 18.9677 85.9061 18.0937C85.9061 17.2584 86.0704 16.5397 86.3989 15.9376C86.7468 15.3354 87.2106 14.8498 87.7904 14.4807C88.3702 14.1117 89.0466 13.8398 89.8197 13.6649C90.5927 13.4901 91.4044 13.4027 92.2548 13.4027C92.5253 13.4027 92.8056 13.4221 93.0955 13.461C93.3854 13.4804 93.6559 13.5193 93.9072 13.5775C94.1777 13.6164 94.4096 13.6552 94.6029 13.6941C94.7962 13.7329 94.9315 13.7621 95.0088 13.7815V13.0239C95.0088 12.5772 94.9604 12.1401 94.8638 11.7128C94.7672 11.266 94.5932 10.8776 94.342 10.5473C94.0908 10.1977 93.7429 9.92577 93.2984 9.73153C92.8732 9.51786 92.3127 9.41103 91.617 9.41103C90.728 9.41103 89.9453 9.47902 89.2689 9.61498C88.6118 9.73153 88.119 9.85779 87.7904 9.99376L87.4715 7.75026C87.8194 7.59487 88.3992 7.44918 89.2109 7.31322C90.0226 7.15782 90.9019 7.08012 91.8489 7.08012Z" fill="white"/>
<path d="M101.878 7.89594C102.497 7.74055 103.318 7.57544 104.342 7.40062C105.366 7.22581 106.545 7.1384 107.879 7.1384C109.077 7.1384 110.072 7.31322 110.865 7.66285C111.657 7.99306 112.285 8.46896 112.749 9.09053C113.232 9.69268 113.57 10.4211 113.764 11.2758C113.957 12.1304 114.054 13.0725 114.054 14.102V22.6098H111.358V14.6847C111.358 13.7523 111.29 12.9559 111.155 12.2955C111.039 11.6351 110.836 11.1009 110.546 10.693C110.256 10.2851 109.869 9.99376 109.386 9.81894C108.903 9.6247 108.304 9.52758 107.589 9.52758C107.299 9.52758 107 9.53729 106.69 9.55671C106.381 9.57614 106.082 9.60527 105.792 9.64412C105.521 9.66354 105.27 9.69268 105.038 9.73153C104.825 9.77038 104.671 9.79951 104.574 9.81894V22.6098H101.878V7.89594Z" fill="white"/>
<path d="M130.28 22.1727C129.661 22.3281 128.84 22.4932 127.815 22.6681C126.81 22.8429 125.641 22.9303 124.308 22.9303C123.148 22.9303 122.172 22.7652 121.38 22.435C120.587 22.0853 119.95 21.5997 119.466 20.9781C118.983 20.3566 118.635 19.6282 118.423 18.7929C118.21 17.9383 118.104 16.9962 118.104 15.9667V7.4589H120.8V15.384C120.8 17.2293 121.09 18.5501 121.67 19.3465C122.249 20.1429 123.225 20.5411 124.598 20.5411C124.887 20.5411 125.187 20.5314 125.496 20.512C125.805 20.4925 126.095 20.4731 126.366 20.4537C126.637 20.4148 126.878 20.3857 127.091 20.3663C127.323 20.3274 127.487 20.2886 127.583 20.2497V7.4589H130.28V22.1727Z" fill="white"/>
<path d="M138.185 20.6576C139.287 20.6576 140.099 20.512 140.621 20.2206C141.162 19.9292 141.432 19.4631 141.432 18.8221C141.432 18.1616 141.171 17.6372 140.65 17.2487C140.128 16.8602 139.268 16.4232 138.069 15.9376C137.49 15.7045 136.929 15.4714 136.388 15.2383C135.866 14.9858 135.412 14.6944 135.026 14.3642C134.639 14.034 134.33 13.6358 134.098 13.1696C133.866 12.7034 133.75 12.1304 133.75 11.4506C133.75 10.1103 134.243 9.05168 135.229 8.27471C136.214 7.47832 137.557 7.08012 139.258 7.08012C139.683 7.08012 140.108 7.10926 140.534 7.16753C140.959 7.20638 141.355 7.26465 141.722 7.34235C142.089 7.40062 142.408 7.46861 142.679 7.54631C142.969 7.624 143.191 7.69199 143.346 7.75026L142.853 10.0812C142.563 9.92577 142.109 9.77038 141.49 9.61498C140.872 9.44017 140.128 9.35276 139.258 9.35276C138.504 9.35276 137.847 9.50815 137.287 9.81894C136.726 10.1103 136.446 10.5765 136.446 11.2175C136.446 11.5477 136.504 11.8391 136.62 12.0916C136.755 12.3441 136.949 12.5772 137.2 12.7908C137.47 12.9851 137.799 13.1696 138.185 13.3444C138.572 13.5193 139.036 13.7038 139.577 13.898C140.292 14.17 140.93 14.4419 141.49 14.7138C142.051 14.9664 142.524 15.2674 142.911 15.6171C143.317 15.9667 143.626 16.394 143.838 16.8991C144.051 17.3847 144.157 17.9868 144.157 18.7055C144.157 20.1041 143.635 21.1627 142.592 21.8814C141.568 22.6001 140.099 22.9594 138.185 22.9594C136.852 22.9594 135.808 22.8429 135.055 22.6098C134.301 22.3961 133.789 22.231 133.518 22.1145L134.011 19.7836C134.32 19.9001 134.813 20.0749 135.489 20.308C136.166 20.5411 137.065 20.6576 138.185 20.6576Z" fill="white"/>
</svg>
