<svg width="128" height="29" viewBox="0 0 128 29" fill="none" xmlns="http://www.w3.org/2000/svg">
<path fill-rule="evenodd" clip-rule="evenodd" d="M40.7464 25.1869V16.1925H47.6143V14.5615V12.7448H40.7464V6.81961H49.7202V3.36499H36.8857V25.1869H38.6819H40.7464ZM53.2642 7.90693C54.4961 7.90693 55.4595 6.94348 55.4595 5.69789C55.4595 4.42478 54.4961 3.48886 53.2642 3.48886C52.0668 3.48886 51.0414 4.42478 51.0414 5.69789C51.0414 6.94348 52.0599 7.90693 53.2642 7.90693ZM61.6668 17.4588V25.1869H57.992V10.3981H61.6668V12.7448C62.4238 10.9074 64.7361 10.0815 66.2569 10.0815C70.0556 10.0815 72.1821 12.5865 72.1821 16.8945V25.1869H68.5072V17.2385C68.5072 14.8919 67.0827 13.6945 65.438 13.6945C63.7589 13.6945 61.6668 14.6097 61.6668 17.4588ZM92.6965 25.5379C94.1829 25.5379 96.5296 24.7121 97.2866 22.8747V25.1869H100.961V10.3981H97.2866V18.1263C97.2866 21.0097 95.1946 21.925 93.5154 21.925C91.8707 21.925 90.4462 20.7207 90.4462 18.3465V10.3981H86.7713V18.6975C86.7713 23.0054 88.8909 25.5379 92.6965 25.5379ZM115.998 23.1912C114.986 24.774 112.894 25.5035 111.091 25.5035C107.196 25.5035 103.804 22.4962 103.804 17.7753C103.804 13.0269 107.162 10.0815 111.057 10.0815C112.929 10.0815 114.986 10.811 115.998 12.3594V10.3981H119.673V25.1869H115.998V23.1912ZM111.394 22.0557C109.116 22.0557 107.244 20.2183 107.244 17.7478C107.244 15.2772 109.116 13.5018 111.394 13.5018C113.514 13.5018 115.668 15.1465 115.668 17.7478C115.668 20.3422 113.644 22.0557 111.394 22.0557ZM126.348 3.5508V25.2557H122.673V4.53488L126.348 3.5508ZM55.1223 25.1869V10.3912H51.4475V25.1869H55.1223ZM83.8741 25.3108C83.3374 25.4347 82.546 25.5035 81.9748 25.5035C78.5546 25.5035 76.2767 23.4114 76.2767 19.4889V13.7495H73.3313V10.3912H76.2767V6.68198L79.8208 5.7323V10.3912H83.8741V13.7495H79.8208V19.42C79.8208 21.3813 81.0251 22.1727 82.7318 22.1727C83.1103 22.1727 83.5232 22.1383 83.8741 22.0489V25.3108Z" fill="white"/>
<path d="M18.8553 19.6818C23.9482 19.6818 28.0768 15.5532 28.0768 10.4603C28.0768 5.36738 23.9482 1.23877 18.8553 1.23877C13.7624 1.23877 9.63379 5.36738 9.63379 10.4603C9.63379 15.5532 13.7624 19.6818 18.8553 19.6818Z" fill="#A0C8FF"/>
<path d="M18.8557 10.4604H1.65137V27.6648C11.155 27.6648 18.8557 19.9572 18.8557 10.4604Z" fill="#005AD6"/>
<path d="M16.3916 19.3448C17.9538 16.7503 18.8553 13.7086 18.8553 10.4604H9.63379C9.64067 14.6927 12.4966 18.2643 16.3916 19.3448Z" fill="#003F96"/>
</svg>
