<svg width="92" height="32" viewBox="0 0 92 32" fill="none" xmlns="http://www.w3.org/2000/svg">
<path d="M5.24309 5.02323C6.08142 5.02323 6.81317 5.19424 7.43837 5.53624C8.07777 5.87825 8.56798 6.32714 8.90899 6.8829V5.19424H12.5536V17.1004C12.5536 18.1976 12.3333 19.188 11.8929 20.0716C11.4666 20.9693 10.8059 21.6818 9.91072 22.2091C9.02977 22.7364 7.92857 23 6.60715 23C4.84524 23 3.41724 22.5796 2.32316 21.7388C1.22907 20.9123 0.603879 19.7866 0.447581 18.3615H4.04954C4.16321 18.8175 4.43318 19.1738 4.85945 19.4303C5.28572 19.7011 5.81145 19.8364 6.43664 19.8364C7.18971 19.8364 7.78649 19.6156 8.22696 19.1738C8.68165 18.7463 8.90899 18.0551 8.90899 17.1004V15.4117C8.55377 15.9675 8.06356 16.4235 7.43837 16.7797C6.81317 17.1217 6.08142 17.2928 5.24309 17.2928C4.26267 17.2928 3.37462 17.0434 2.57892 16.5446C1.78322 16.0316 1.15092 15.312 0.682028 14.3857C0.227343 13.4452 0 12.3621 0 11.1366C0 9.91109 0.227343 8.83519 0.682028 7.90892C1.15092 6.98265 1.78322 6.27014 2.57892 5.77138C3.37462 5.27261 4.26267 5.02323 5.24309 5.02323ZM8.90899 11.158C8.90899 10.246 8.65323 9.52633 8.14171 8.99907C7.6444 8.47181 7.03341 8.20818 6.30876 8.20818C5.5841 8.20818 4.96602 8.47181 4.45449 8.99907C3.95718 9.51208 3.70853 10.2246 3.70853 11.1366C3.70853 12.0486 3.95718 12.7754 4.45449 13.3169C4.96602 13.8442 5.5841 14.1078 6.30876 14.1078C7.03341 14.1078 7.6444 13.8442 8.14171 13.3169C8.65323 12.7897 8.90899 12.07 8.90899 11.158Z" fill="black"/>
<path d="M18.8349 7.18216C19.2611 6.52664 19.794 6.01363 20.4334 5.64312C21.0728 5.25837 21.7832 5.06599 22.5647 5.06599V8.93494H21.563C20.6536 8.93494 19.9716 9.13445 19.5169 9.53346C19.0622 9.91822 18.8349 10.6022 18.8349 11.5855V17.1217H15.1903V5.19424H18.8349V7.18216Z" fill="black"/>
<path d="M36.0504 5.19424V17.1217H32.4058V15.4972C32.0364 16.0245 31.532 16.452 30.8926 16.7797C30.2674 17.0932 29.5711 17.25 28.8039 17.25C27.8945 17.25 27.0917 17.0505 26.3954 16.6515C25.6992 16.2382 25.1593 15.6468 24.7756 14.8773C24.392 14.1078 24.2002 13.2029 24.2002 12.1626V5.19424H27.8234V11.671C27.8234 12.469 28.0295 13.0889 28.4415 13.5307C28.8536 13.9724 29.4077 14.1933 30.104 14.1933C30.8144 14.1933 31.3757 13.9724 31.7877 13.5307C32.1998 13.0889 32.4058 12.469 32.4058 11.671V5.19424H36.0504Z" fill="black"/>
<path d="M42.3129 6.8829C42.6681 6.32714 43.1583 5.87825 43.7835 5.53624C44.4087 5.19424 45.1404 5.02323 45.9788 5.02323C46.9592 5.02323 47.8472 5.27261 48.6429 5.77138C49.4386 6.27014 50.0638 6.98265 50.5185 7.90892C50.9874 8.83519 51.2219 9.91109 51.2219 11.1366C51.2219 12.3621 50.9874 13.4452 50.5185 14.3857C50.0638 15.312 49.4386 16.0316 48.6429 16.5446C47.8472 17.0434 46.9592 17.2928 45.9788 17.2928C45.1547 17.2928 44.4229 17.1217 43.7835 16.7797C43.1583 16.4377 42.6681 15.996 42.3129 15.4545V22.8076H38.6683V5.19424H42.3129V6.8829ZM47.5133 11.1366C47.5133 10.2246 47.2576 9.51208 46.7461 8.99907C46.2487 8.47181 45.6306 8.20818 44.8918 8.20818C44.1671 8.20818 43.549 8.47181 43.0375 8.99907C42.5402 9.52633 42.2916 10.246 42.2916 11.158C42.2916 12.07 42.5402 12.7897 43.0375 13.3169C43.549 13.8442 44.1671 14.1078 44.8918 14.1078C45.6164 14.1078 46.2345 13.8442 46.7461 13.3169C47.2576 12.7754 47.5133 12.0486 47.5133 11.1366Z" fill="black"/>
<path d="M52.4092 11.1366C52.4092 9.91109 52.6366 8.83519 53.0913 7.90892C53.5602 6.98265 54.1925 6.27014 54.9882 5.77138C55.7839 5.27261 56.6719 5.02323 57.6523 5.02323C58.4907 5.02323 59.2224 5.19424 59.8476 5.53624C60.487 5.87825 60.9772 6.32714 61.3182 6.8829V5.19424H64.9628V17.1217H61.3182V15.4331C60.963 15.9888 60.4657 16.4377 59.8263 16.7797C59.2011 17.1217 58.4693 17.2928 57.631 17.2928C56.6648 17.2928 55.7839 17.0434 54.9882 16.5446C54.1925 16.0316 53.5602 15.312 53.0913 14.3857C52.6366 13.4452 52.4092 12.3621 52.4092 11.1366ZM61.3182 11.158C61.3182 10.246 61.0625 9.52633 60.551 8.99907C60.0536 8.47181 59.4427 8.20818 58.718 8.20818C57.9934 8.20818 57.3753 8.47181 56.8637 8.99907C56.3664 9.51208 56.1178 10.2246 56.1178 11.1366C56.1178 12.0486 56.3664 12.7754 56.8637 13.3169C57.3753 13.8442 57.9934 14.1078 58.718 14.1078C59.4427 14.1078 60.0536 13.8442 60.551 13.3169C61.0625 12.7897 61.3182 12.07 61.3182 11.158Z" fill="black"/>
<path d="M71.2441 1.3039V17.1217H67.5995V1.3039H71.2441Z" fill="black"/>
<path d="M75.7182 3.95446C75.0788 3.95446 74.5531 3.76921 74.1411 3.3987C73.7432 3.01394 73.5443 2.54368 73.5443 1.98792C73.5443 1.41791 73.7432 0.947646 74.1411 0.577138C74.5531 0.192379 75.0788 0 75.7182 0C76.3434 0 76.855 0.192379 77.2528 0.577138C77.6649 0.947646 77.8709 1.41791 77.8709 1.98792C77.8709 2.54368 77.6649 3.01394 77.2528 3.3987C76.855 3.76921 76.3434 3.95446 75.7182 3.95446ZM77.5299 5.19424V17.1217H73.8853V5.19424H77.5299Z" fill="black"/>
<path d="M79.4464 11.1366C79.4464 9.91109 79.6738 8.83519 80.1285 7.90892C80.5973 6.98265 81.2296 6.27014 82.0253 5.77138C82.821 5.27261 83.7091 5.02323 84.6895 5.02323C85.5278 5.02323 86.2596 5.19424 86.8848 5.53624C87.5242 5.87825 88.0144 6.32714 88.3554 6.8829V5.19424H92V17.1217H88.3554V15.4331C88.0002 15.9888 87.5029 16.4377 86.8635 16.7797C86.2383 17.1217 85.5065 17.2928 84.6682 17.2928C83.702 17.2928 82.821 17.0434 82.0253 16.5446C81.2296 16.0316 80.5973 15.312 80.1285 14.3857C79.6738 13.4452 79.4464 12.3621 79.4464 11.1366ZM88.3554 11.158C88.3554 10.246 88.0996 9.52633 87.5881 8.99907C87.0908 8.47181 86.4798 8.20818 85.7552 8.20818C85.0305 8.20818 84.4124 8.47181 83.9009 8.99907C83.4036 9.51208 83.1549 10.2246 83.1549 11.1366C83.1549 12.0486 83.4036 12.7754 83.9009 13.3169C84.4124 13.8442 85.0305 14.1078 85.7552 14.1078C86.4798 14.1078 87.0908 13.8442 87.5881 13.3169C88.0996 12.7897 88.3554 12.07 88.3554 11.158Z" fill="black"/>
<path d="M91.0713 19.8984C90.8354 22.7107 89.3991 25.4047 86.9463 27.4736C84.2302 29.7646 80.5043 31.0847 76.583 31.1064C72.6619 31.1281 68.9178 29.85 66.1699 27.5889C63.6887 25.5471 62.2142 22.8686 61.9395 20.0596L63.6074 20.0498C63.8783 22.6716 65.2564 25.1066 67.4609 26.9209C69.9088 28.9353 73.1883 30.0363 76.5732 30.0176C79.9583 29.9988 83.2236 28.8614 85.6445 26.8193C87.824 24.9808 89.1686 22.5309 89.4043 19.9072L91.0713 19.8984Z" fill="#7C3AED" stroke="#7C3AED" stroke-width="1.78636"/>
</svg>
